<svg aria-hidden="true" style="width:0;height:0;position:absolute;overflow:hidden" xmlns="http://www.w3.org/2000/svg"><defs><symbol id="icon-Vector" viewBox="0 0 21 32"><path d="M21.08 21.52V10.48h-.126v11.04h.126zm0-11.04c0-5.799-4.724-10.5-10.55-10.5v.126c5.757 0 10.424 4.645 10.424 10.374h.126zM10.53-.02C4.704-.02-.02 4.68-.02 10.48h.126C.106 4.751 4.773.106 10.53.106V-.02zM-.02 10.48v11.04h.126V10.48H-.02zm0 11.04c0 5.799 4.724 10.5 10.55 10.5v-.126C4.773 31.894.106 27.249.106 21.52H-.02zm10.55 10.5c5.826 0 10.55-4.7 10.55-10.5h-.126c0 5.729-4.667 10.374-10.424 10.374v.126zm0-32.083C4.68-.063-.063 4.657-.063 10.48h.126C.063 4.727 4.749.063 10.531.063v-.126zM-.063 10.48v11.04h.126V10.48h-.126zm0 11.04c0 5.823 4.743 10.543 10.593 10.543v-.126C4.749 31.937.062 27.273.062 21.52h-.126zM10.53 32.063c5.85 0 10.593-4.72 10.593-10.543h-.126c0 5.753-4.686 10.417-10.468 10.417v.126zM21.124 21.52V10.48h-.126v11.04h.126zm0-11.04c0-5.823-4.743-10.543-10.593-10.543v.126c5.781 0 10.468 4.664 10.468 10.417h.126z"/></symbol></defs></svg>