<svg aria-hidden="true" style="position: absolute; width: 0; height: 0; overflow: hidden;" version="1.1" xmlns="http://www.w3.org/2000/svg" xmlns:xlink="http://www.w3.org/1999/xlink">
<defs>
<symbol id="icon-Vector" viewBox="0 0 21 32">
<path d="M21.080 21.52v-11.040h-0.126v11.040h0.126zM21.080 10.48c0-5.799-4.724-10.5-10.55-10.5v0.126c5.757 0 10.424 4.645 10.424 10.374h0.126zM10.53-0.020c-5.826 0-10.55 4.7-10.55 10.5h0.126c0-5.729 4.667-10.374 10.424-10.374v-0.126zM-0.020 10.48v11.040h0.126v-11.040h-0.126zM-0.020 21.52c0 5.799 4.724 10.5 10.55 10.5v-0.126c-5.757 0-10.424-4.645-10.424-10.374h-0.126zM10.53 32.020c5.826 0 10.55-4.7 10.55-10.5h-0.126c0 5.729-4.667 10.374-10.424 10.374v0.126zM10.53-0.063c-5.85 0-10.593 4.72-10.593 10.543h0.126c0-5.753 4.686-10.417 10.468-10.417v-0.126zM-0.063 10.48v11.040h0.126v-11.040h-0.126zM-0.063 21.52c0 5.823 4.743 10.543 10.593 10.543v-0.126c-5.781 0-10.468-4.664-10.468-10.417h-0.126zM10.53 32.063c5.85 0 10.593-4.72 10.593-10.543h-0.126c0 5.753-4.686 10.417-10.468 10.417v0.126zM21.124 21.52v-11.040h-0.126v11.040h0.126zM21.124 10.48c0-5.823-4.743-10.543-10.593-10.543v0.126c5.781 0 10.468 4.664 10.468 10.417h0.126z"></path>
</symbol>
</defs>
</svg>
